# Blender 4.0.1
# www.blender.org
mtllib 1x2x1_Cuboid.mtl
o Cube
v 0.500000 1.500000 -0.500000
v 0.500000 -0.500000 -0.500000
v 0.500000 1.500000 0.500000
v 0.500000 -0.500000 0.500000
v -0.500000 1.500000 -0.500000
v -0.500000 -0.500000 -0.500000
v -0.500000 1.500000 0.500000
v -0.500000 -0.500000 0.500000
vn -0.0000 1.0000 -0.0000
vn -0.0000 -0.0000 1.0000
vn -1.0000 -0.0000 -0.0000
vn -0.0000 -1.0000 -0.0000
vn 1.0000 -0.0000 -0.0000
vn -0.0000 -0.0000 -1.0000
vt 0.750000 0.750000
vt 0.999957 0.750000
vt 0.999957 0.999957
vt 0.750000 0.999957
vt 0.000043 0.249957
vt 0.250000 0.249957
vt 0.250000 0.749913
vt 0.000043 0.749913
vt 0.750043 0.250087
vt 1.000000 0.250087
vt 1.000000 0.750043
vt 0.750043 0.750043
vt 0.000087 0.750000
vt 0.250043 0.750000
vt 0.250043 0.999957
vt 0.000087 0.999957
vt 0.250043 0.250000
vt 0.500000 0.250000
vt 0.500000 0.749957
vt 0.250043 0.749957
vt 0.500043 0.250043
vt 0.750000 0.250043
vt 0.500043 0.750000
s 0
usemtl Material
f 1/1/1 5/2/1 7/3/1 3/4/1
f 4/5/2 3/6/2 7/7/2 8/8/2
f 8/9/3 7/10/3 5/11/3 6/12/3
f 6/13/4 2/14/4 4/15/4 8/16/4
f 2/17/5 1/18/5 3/19/5 4/20/5
f 6/21/6 5/22/6 1/1/6 2/23/6
